# xmcd CD database file generated by MAGIX-FreeDB- v3.0beta1
#
# Track frame offsets:
#	150
#	18062
#	31987
#	53187
#	70512
#	83300
#	104637
#	122575
#	141025
#	152775
#	173500
#	191250
#	197537
#	217275
#	237750
#	263012
#	284600
#
# Disc length: 4059
#
# Revision: 22
# Processed by: cddbd v1.5.2PL0 Copyright (c) Steve Scherf et al.
# Submitted via: MAGIX-FreeDB- v3.0beta1
#
DISCID=de0fd911
DTITLE=Böhse Onkelz - Gehasst, verdammt, vergöttert ... die letzten Jahre - CD 1
DYEAR=1994
DGENRE=Rock
TTITLE0=Lieber stehend sterben
TTITLE1=Gehasst, verdammt, vergöttert
TTITLE2=Wir ham' noch lange nicht genug
TTITLE3=Ich bin in dir
TTITLE4=Mexico (Wiederaufnahme)
TTITLE5=Heilige Lieder
TTITLE6=Wenn wir einmal Engel sind
TTITLE7=Wieder mal 'nen Tag verschenkt
TTITLE8=Scheißegal
TTITLE9=Schöne neue Welt
TTITLE10=Nur die Besten sterben jung
TTITLE11=Ich lieb' mich (Wiederaufnahme)
TTITLE12=Erinnerungen (Remixed)
TTITLE13=Deutschland im Herbst
TTITLE14=Für immer
TTITLE15=Ich bin wie ich bin
TTITLE16=Die Böhsen Onkelz geben sich die Ehre (Remixed)
EXTD=
EXTT0=
EXTT1=
EXTT2=
EXTT3=
EXTT4=
EXTT5=
EXTT6=
EXTT7=
EXTT8=
EXTT9=
EXTT10=
EXTT11=
EXTT12=
EXTT13=
EXTT14=
EXTT15=
EXTT16=
PLAYORDER=
